<svg xmlns="http://www.w3.org/2000/svg" xmlns:xlink="http://www.w3.org/1999/xlink" width="110.97" height="110.973" viewBox="0 0 110.97 110.973"><defs><style>.a{fill:none;}.b{fill:url(#a);}.c{clip-path:url(#b);}.d{fill:#fffdfd;}</style><linearGradient id="a" x1="0.146" y1="0.854" x2="0.854" y2="0.146" gradientUnits="objectBoundingBox"><stop offset="0" stop-color="#3841ae"/><stop offset="1" stop-color="#079176"/></linearGradient><clipPath id="b"><rect class="a" width="64.35" height="57.751" transform="translate(0 0)"/></clipPath></defs><g transform="translate(-585 -4093)"><g transform="translate(584.997 4092.997)"><g transform="translate(0.003 0.003)"><path class="b" d="M104.48,55.487c0-7.358,8.633-16.384,5.985-22.779-2.753-6.628-15.342-6.874-20.327-11.859S84.889,3.257,78.26.51c-6.4-2.655-15.421,5.978-22.773,5.978S39.1-2.145,32.708.51c-6.628,2.747-6.874,15.335-11.859,20.339S3.257,26.079.51,32.708c-2.655,6.4,5.978,15.421,5.978,22.779S-2.145,71.865.51,78.26c2.747,6.628,15.335,6.874,20.339,11.877s5.236,17.58,11.865,20.333c6.4,2.649,15.421-5.985,22.779-5.985s16.378,8.633,22.773,5.985c6.628-2.753,6.874-15.329,11.871-20.333s17.58-5.243,20.333-11.871C113.113,71.865,104.48,62.839,104.48,55.487Z" transform="translate(-0.003 -0.003)"/></g></g><g transform="translate(605 4122)"><g class="c"><path class="d" d="M48.675,57.751a2.475,2.475,0,0,1-1.75-.725L32.442,42.544,24.255,53.46a2.475,2.475,0,0,1-4.328-.7L13.651,33.93,1.369,27.789a2.475,2.475,0,0,1,.209-4.52l59.4-23.1a2.474,2.474,0,0,1,3.3,2.906l-13.2,52.8a2.475,2.475,0,0,1-2.4,1.876m-14.7-20.676L47.334,50.434,58.314,6.515,8.577,25.858l8.2,4.1a2.471,2.471,0,0,1,1.242,1.43l5.1,15.318,5.778-7.7-1.782-1.781a2.476,2.476,0,0,1,0-3.5l13.2-13.2a2.476,2.476,0,0,1,3.5,3.5l-11.45,11.45,1.5,1.505c.033.031.065.064.1.1"/></g></g></g></svg>