<svg xmlns="http://www.w3.org/2000/svg" xmlns:xlink="http://www.w3.org/1999/xlink" width="110.963" height="110.966" viewBox="0 0 110.963 110.966"><defs><style>.a{fill:none;}.b{fill:url(#a);}.c{clip-path:url(#b);}.d{fill:#fffdfd;}</style><linearGradient id="a" y1="0.5" x2="1" y2="0.5" gradientUnits="objectBoundingBox"><stop offset="0" stop-color="#fb6840"/><stop offset="0.25" stop-color="#fb6c3d"/><stop offset="0.48" stop-color="#fb7633"/><stop offset="0.7" stop-color="#fb8923"/><stop offset="0.91" stop-color="#fba20c"/><stop offset="1" stop-color="#fbb000"/></linearGradient><clipPath id="b"><rect class="a" width="64.35" height="57.749" transform="translate(0 0)"/></clipPath></defs><g transform="translate(-977 -3299.008)"><g transform="translate(976.997 3299.005)"><g transform="translate(0.003 0.003)"><path class="b" d="M104.473,55.484c0-7.358,8.633-16.383,5.984-22.778-2.753-6.628-15.341-6.873-20.325-11.858S84.883,3.257,78.255.51C71.86-2.145,62.835,6.488,55.484,6.488S39.1-2.145,32.706.51c-6.628,2.747-6.873,15.334-11.858,20.338S3.257,26.078.51,32.706C-2.145,39.1,6.488,48.126,6.488,55.484S-2.145,71.86.51,78.255c2.747,6.628,15.334,6.873,20.338,11.876s5.236,17.579,11.864,20.332c6.395,2.649,15.42-5.984,22.778-5.984s16.377,8.633,22.772,5.984c6.628-2.753,6.873-15.328,11.87-20.332s17.579-5.242,20.332-11.87C113.106,71.86,104.473,62.835,104.473,55.484Z" transform="translate(-0.003 -0.003)"/></g></g><g transform="translate(1000 3326)"><g class="c"><path class="d" d="M64.35,9.076A9.085,9.085,0,0,0,55.275,0H9.076A9.07,9.07,0,0,0,6.6,17.8V48.676a9.084,9.084,0,0,0,9.073,9.073h33a9.085,9.085,0,0,0,9.074-9.073V17.8a9.084,9.084,0,0,0,6.6-8.722M48.676,52.8h-33a4.127,4.127,0,0,1-4.123-4.123V18.149H52.8V48.676A4.126,4.126,0,0,1,48.676,52.8m6.6-39.6H9.076a4.125,4.125,0,1,1,0-8.25h46.2a4.125,4.125,0,1,1,0,8.25"/><rect class="d" width="13.201" height="4.95" transform="translate(25.574 26.401)"/></g></g></g></svg>