<svg xmlns="http://www.w3.org/2000/svg" xmlns:xlink="http://www.w3.org/1999/xlink" width="110.97" height="110.973" viewBox="0 0 110.97 110.973"><defs><style>.a{fill:none;}.b{fill:url(#a);}.c{clip-path:url(#b);}.d{fill:#fffdfd;}</style><linearGradient id="a" x1="0.146" y1="0.854" x2="0.854" y2="0.146" gradientUnits="objectBoundingBox"><stop offset="0" stop-color="#3841ae"/><stop offset="1" stop-color="#079176"/></linearGradient><clipPath id="b"><rect class="a" width="51.149" height="64.35" transform="translate(0 0)"/></clipPath></defs><g transform="translate(-977 -4093)"><g transform="translate(976.997 4092.997)"><g transform="translate(0.003 0.003)"><path class="b" d="M104.48,55.487c0-7.358,8.633-16.384,5.985-22.779-2.753-6.628-15.342-6.874-20.327-11.859S84.889,3.257,78.26.51c-6.4-2.655-15.421,5.978-22.773,5.978S39.1-2.145,32.708.51c-6.628,2.747-6.874,15.335-11.859,20.339S3.257,26.079.51,32.708c-2.655,6.4,5.978,15.421,5.978,22.779S-2.145,71.865.51,78.26c2.747,6.628,15.335,6.874,20.339,11.877s5.236,17.58,11.865,20.333c6.4,2.649,15.421-5.985,22.779-5.985s16.378,8.633,22.773,5.985c6.628-2.753,6.874-15.329,11.871-20.333s17.58-5.243,20.333-11.871C113.113,71.865,104.48,62.839,104.48,55.487Z" transform="translate(-0.003 -0.003)"/></g></g><g transform="translate(1007 4114)"><g class="c"><path class="d" d="M42.075,6.6H37.562A9.058,9.058,0,0,0,28.874,0h-6.6a9.058,9.058,0,0,0-8.688,6.6H9.073A9.086,9.086,0,0,0,0,15.676v39.6A9.085,9.085,0,0,0,9.073,64.35h33a9.085,9.085,0,0,0,9.073-9.074v-39.6A9.086,9.086,0,0,0,42.075,6.6m-19.8-1.65h6.6a4.126,4.126,0,0,1,0,8.251h-6.6a4.126,4.126,0,0,1,0-8.251M46.2,55.276A4.128,4.128,0,0,1,42.075,59.4h-33A4.128,4.128,0,0,1,4.95,55.276v-39.6A4.129,4.129,0,0,1,9.073,11.55h4.513a9.059,9.059,0,0,0,8.688,6.6h6.6a9.059,9.059,0,0,0,8.688-6.6h4.513A4.129,4.129,0,0,1,46.2,15.676Z"/><path class="d" d="M15.708,29.7h-.034a2.461,2.461,0,0,0-2.459,2.475A2.484,2.484,0,1,0,15.708,29.7"/><path class="d" d="M35.475,29.7h-6.6a2.475,2.475,0,1,0,0,4.95h6.6a2.475,2.475,0,1,0,0-4.95"/><path class="d" d="M15.708,42.9h-.034a2.461,2.461,0,0,0-2.459,2.475A2.484,2.484,0,1,0,15.708,42.9"/><path class="d" d="M35.475,42.9h-6.6a2.475,2.475,0,1,0,0,4.95h6.6a2.475,2.475,0,1,0,0-4.95"/></g></g></g></svg>