<svg xmlns="http://www.w3.org/2000/svg" xmlns:xlink="http://www.w3.org/1999/xlink" width="110.963" height="110.966" viewBox="0 0 110.963 110.966"><defs><style>.a{fill:none;}.b{fill:url(#a);}.c{clip-path:url(#b);}.d{fill:#fffdfd;}</style><linearGradient id="a" y1="0.5" x2="1" y2="0.5" gradientUnits="objectBoundingBox"><stop offset="0" stop-color="#fb6840"/><stop offset="0.25" stop-color="#fb6c3d"/><stop offset="0.48" stop-color="#fb7633"/><stop offset="0.7" stop-color="#fb8923"/><stop offset="0.91" stop-color="#fba20c"/><stop offset="1" stop-color="#fbb000"/></linearGradient><clipPath id="b"><rect class="a" width="64.35" height="64.35" transform="translate(0 0)"/></clipPath></defs><g transform="translate(-193.007 -3299.008)"><g transform="translate(193.004 3299.005)"><g transform="translate(0.003 0.003)"><path class="b" d="M104.473,55.484c0-7.358,8.633-16.383,5.984-22.778-2.753-6.628-15.341-6.873-20.325-11.858S84.883,3.257,78.255.51C71.86-2.145,62.835,6.488,55.484,6.488S39.1-2.145,32.706.51c-6.628,2.747-6.873,15.334-11.858,20.338S3.257,26.078.51,32.706C-2.145,39.1,6.488,48.126,6.488,55.484S-2.145,71.86.51,78.255c2.747,6.628,15.334,6.873,20.338,11.876s5.236,17.579,11.864,20.332c6.395,2.649,15.42-5.984,22.778-5.984s16.377,8.633,22.772,5.984c6.628-2.753,6.873-15.328,11.87-20.332s17.579-5.242,20.332-11.87C113.106,71.86,104.473,62.835,104.473,55.484Z" transform="translate(-0.003 -0.003)"/></g></g><g transform="translate(216 3322)"><g class="c"><path class="d" d="M15.116,15.115a2.481,2.481,0,0,0,0-3.5L12.806,9.3a2.476,2.476,0,0,0-3.5,3.5l2.309,2.31a2.478,2.478,0,0,0,3.5,0"/><path class="d" d="M51.544,9.305l-2.31,2.31a2.476,2.476,0,0,0,3.5,3.5l2.31-2.31a2.476,2.476,0,0,0-3.5-3.5"/><path class="d" d="M32.175,8.25A2.474,2.474,0,0,0,34.65,5.774v-3.3a2.475,2.475,0,1,0-4.95,0v3.3A2.474,2.474,0,0,0,32.175,8.25"/><path class="d" d="M5.775,29.7h-3.3a2.475,2.475,0,0,0,0,4.95h3.3a2.475,2.475,0,0,0,0-4.95"/><path class="d" d="M61.875,29.7h-3.3a2.475,2.475,0,0,0,0,4.95h3.3a2.475,2.475,0,0,0,0-4.95"/><path class="d" d="M43.561,17A18.975,18.975,0,0,0,20.642,47.243,9,9,0,0,1,22.3,49.622c.03.07.071.133.1.2a9.092,9.092,0,0,1,.722,5.09,2.61,2.61,0,0,0-.026.364,9.075,9.075,0,1,0,18.15,0,2.466,2.466,0,0,0-.026-.364,9.082,9.082,0,0,1,.719-5.083,2.21,2.21,0,0,0,.109-.211,9.04,9.04,0,0,1,1.656-2.374A18.976,18.976,0,0,0,43.561,17M32.175,59.4a4.13,4.13,0,0,1-4.122-3.973,13.932,13.932,0,0,0-.116-4.278h8.477a13.963,13.963,0,0,0-.117,4.278A4.129,4.129,0,0,1,32.175,59.4M43.394,40.59a13.988,13.988,0,0,1-2.8,2.806,2.522,2.522,0,0,0-.257.219A13.96,13.96,0,0,0,38.284,46.2H26.067a13.966,13.966,0,0,0-2.05-2.584,2.418,2.418,0,0,0-.257-.219A14.026,14.026,0,1,1,43.394,40.59"/></g></g></g></svg>