<svg xmlns="http://www.w3.org/2000/svg" xmlns:xlink="http://www.w3.org/1999/xlink" width="110.963" height="110.966" viewBox="0 0 110.963 110.966"><defs><style>.a{fill:none;}.b{fill:url(#a);}.c{clip-path:url(#b);}.d{fill:#fffdfd;}</style><linearGradient id="a" y1="0.5" x2="1" y2="0.5" gradientUnits="objectBoundingBox"><stop offset="0" stop-color="#fb6840"/><stop offset="0.25" stop-color="#fb6c3d"/><stop offset="0.48" stop-color="#fb7633"/><stop offset="0.7" stop-color="#fb8923"/><stop offset="0.91" stop-color="#fba20c"/><stop offset="1" stop-color="#fbb000"/></linearGradient><clipPath id="b"><rect class="a" width="64.351" height="64.468" transform="translate(0 0)"/></clipPath></defs><g transform="translate(-585 -3299.008)"><g transform="translate(584.997 3299.005)"><g transform="translate(0.003 0.003)"><path class="b" d="M104.473,55.484c0-7.358,8.633-16.383,5.984-22.778-2.753-6.628-15.341-6.873-20.325-11.858S84.883,3.257,78.255.51C71.86-2.145,62.835,6.488,55.484,6.488S39.1-2.145,32.706.51c-6.628,2.747-6.873,15.334-11.858,20.338S3.257,26.078.51,32.706C-2.145,39.1,6.488,48.126,6.488,55.484S-2.145,71.86.51,78.255c2.747,6.628,15.334,6.873,20.338,11.876s5.236,17.579,11.864,20.332c6.395,2.649,15.42-5.984,22.778-5.984s16.377,8.633,22.772,5.984c6.628-2.753,6.873-15.328,11.87-20.332s17.579-5.242,20.332-11.87C113.106,71.86,104.473,62.835,104.473,55.484Z" transform="translate(-0.003 -0.003)"/></g></g><g transform="translate(608 3322)"><g class="c"><path class="d" d="M32.175,44.635A12.375,12.375,0,1,1,44.55,32.26,12.389,12.389,0,0,1,32.175,44.635m0-19.8A7.425,7.425,0,1,0,39.6,32.26a7.434,7.434,0,0,0-7.425-7.425"/><path class="d" d="M32.175,64.468A2.484,2.484,0,1,1,34.65,61.96v.033a2.474,2.474,0,0,1-2.475,2.475"/><path class="d" d="M2.475,24.868A2.484,2.484,0,1,1,4.95,22.36v.033a2.474,2.474,0,0,1-2.475,2.475"/><path class="d" d="M61.875,24.868A2.484,2.484,0,1,1,64.35,22.36v.033a2.474,2.474,0,0,1-2.475,2.475"/><path class="d" d="M18.973,61.466a2.456,2.456,0,0,1-1.083-.252A32.006,32.006,0,0,1,.015,35.833a2.475,2.475,0,0,1,4.92-.545A27.091,27.091,0,0,0,20.06,56.767a2.475,2.475,0,0,1-1.087,4.7"/><path class="d" d="M45.376,61.466a2.475,2.475,0,0,1-1.087-4.7A27.094,27.094,0,0,0,59.415,35.288a2.475,2.475,0,0,1,4.92.545A32.01,32.01,0,0,1,46.459,61.214a2.456,2.456,0,0,1-1.083.252"/><path class="d" d="M50.653,11.635a2.464,2.464,0,0,1-1.565-.559,27.307,27.307,0,0,0-34.486,0,2.475,2.475,0,1,1-3.134-3.832,32.281,32.281,0,0,1,40.754,0,2.475,2.475,0,0,1-1.569,4.391"/></g></g></g></svg>