<svg xmlns="http://www.w3.org/2000/svg" xmlns:xlink="http://www.w3.org/1999/xlink" width="85.633" height="84.803" viewBox="0 0 85.633 84.803"><defs><style>.a{fill:none;}.b{clip-path:url(#a);}.c{fill:#fff;}</style><clipPath id="a"><rect class="a" width="85.633" height="84.803"/></clipPath></defs><g class="b" transform="translate(0 0)"><path class="c" d="M40.2,90.69A8.223,8.223,0,0,0,38.95,90.6a39.878,39.878,0,0,1-23.355-9.641A37.466,37.466,0,0,1,5.8,67.72a6.571,6.571,0,0,1-.515-4.182,3.112,3.112,0,0,1,3.175-2.58,5.771,5.771,0,0,1,4.119,1.686,17.86,17.86,0,0,1,3.283,4.34,43.99,43.99,0,0,0,4.767,6.748,33.97,33.97,0,0,0,9.762,7.842,33.142,33.142,0,0,0,10.594,3.462,34.563,34.563,0,0,0,6.972.332,32.389,32.389,0,0,0,13.668-3.65,30.468,30.468,0,0,0,6.387-4.49,33.192,33.192,0,0,0,7.656-10.52,36.276,36.276,0,0,0,1.521-3.77,3.322,3.322,0,0,1,.566-1.08,1.628,1.628,0,0,1,.986-.584.748.748,0,0,1,.925.623A2.382,2.382,0,0,1,79.62,63a27.049,27.049,0,0,1-1.341,3.925,36.7,36.7,0,0,1-5.738,9.442A39.471,39.471,0,0,1,61.574,85.5a39.906,39.906,0,0,1-12.647,4.567,36.59,36.59,0,0,1-5.309.585,1.854,1.854,0,0,0-.244.039Z" transform="translate(-0.496 -5.887)"/><path class="c" d="M93.344,38.205q-.972,2.067-1.944,4.133-1.431,3.052-2.861,6.1a1.1,1.1,0,0,0-.089.487q0,2.564,0,5.128c0,.384,0,.385-.388.386H85.082c-.379,0-.383,0-.383-.394q0-2.576,0-5.155a1.276,1.276,0,0,0-.127-.562Q82.258,43.4,79.95,38.47c-.14-.3-.124-.331.206-.332,1.106,0,2.211.006,3.316-.005a.408.408,0,0,1,.45.305c.876,2.22,1.707,4.457,2.531,6.7a.225.225,0,0,0,.01.026c.044.078.03.217.133.223s.108-.133.14-.212c.417-1.082.83-2.167,1.247-3.251q.672-1.741,1.349-3.48c.061-.158.113-.306.337-.3,1.225.01,2.452.011,3.677.014Z" transform="translate(-7.713 -3.683)"/><path class="c" d="M81.221,25.811a4.35,4.35,0,0,1-.772,2.759,2.871,2.871,0,0,1-2.19,1.166,5.656,5.656,0,0,1-4.31-1.535,15.636,15.636,0,0,1-3.036-3.826,57.215,57.215,0,0,0-3.693-5.6A34.707,34.707,0,0,0,55.946,9.113,33.075,33.075,0,0,0,45.762,5.729,34.725,34.725,0,0,0,38.4,5.339,32.348,32.348,0,0,0,24.419,9.166a30.614,30.614,0,0,0-8.185,6.457,34.851,34.851,0,0,0-7.051,12.16,2.728,2.728,0,0,1-.852,1.343,1.549,1.549,0,0,1-.706.311.742.742,0,0,1-.9-.588,2.885,2.885,0,0,1,.128-1.536,34.853,34.853,0,0,1,3.16-7.446A37.633,37.633,0,0,1,16.968,11,39.865,39.865,0,0,1,35.552,1.032,41.19,41.19,0,0,1,45.777.017a40,40,0,0,1,14.7,3.258,39.185,39.185,0,0,1,10.61,6.736A37.344,37.344,0,0,1,79.311,20.4a22.218,22.218,0,0,1,1.59,3.464,5.661,5.661,0,0,1,.32,1.948" transform="translate(-0.644 0)"/><path class="c" d="M51,42.86c.07.688.134,1.377.21,2.063a34.292,34.292,0,0,1,.25,3.441c.019,1.894.005,3.79,0,5.684,0,.388,0,.391-.384.392-.948,0-1.9-.006-2.843,0-.259,0-.359-.069-.358-.343q.009-7.815,0-15.632c0-.245.067-.345.331-.342,1.078.012,2.156.008,3.232,0a.386.386,0,0,1,.391.239c1.346,2.576,2.716,5.14,4.04,7.726.549,1.074,1.006,2.194,1.5,3.294a.765.765,0,0,0,.206.3c-.046-.447-.089-.894-.137-1.341a41.093,41.093,0,0,1-.313-4.16c-.013-1.9,0-3.791,0-5.684,0-.37,0-.372.373-.373.957,0,1.913.008,2.87-.005.274,0,.347.095.347.355q-.009,7.8,0,15.6c0,.287-.1.362-.373.359-1.059-.013-2.118-.01-3.176,0a.422.422,0,0,1-.438-.255c-1.342-2.578-2.707-5.145-4.027-7.734-.561-1.1-1.034-2.242-1.547-3.365-.037-.082-.078-.163-.117-.243L51,42.86" transform="translate(-4.624 -3.682)"/><path class="c" d="M29.568,49.024c0,1.143-.005,2.285,0,3.427a.607.607,0,0,1-.249.522,7.862,7.862,0,0,1-4.366,1.714,8.661,8.661,0,0,1-4.405-.695,6.885,6.885,0,0,1-3.934-4.548,10.1,10.1,0,0,1,.389-7.16A7.317,7.317,0,0,1,22.87,37.89a7.465,7.465,0,0,1,4.2.5,7.052,7.052,0,0,1,2.035,1.344c.167.155.167.266.023.436-.544.647-1.079,1.3-1.608,1.96-.137.173-.242.175-.4.029a4.112,4.112,0,0,0-2.775-1.127,3.886,3.886,0,0,0-3.847,2.6,7.1,7.1,0,0,0,.164,5.713,3.661,3.661,0,0,0,3.033,2.081,4.151,4.151,0,0,0,2.035-.139c.5-.179.519-.21.519-.736,0-.659-.007-1.318,0-1.978,0-.229-.071-.311-.3-.307-.7.012-1.393,0-2.09.007-.24,0-.332-.087-.329-.325q.011-1.226,0-2.452c0-.229.094-.308.319-.307q2.7.007,5.405,0c.247,0,.32.089.318.328-.01,1.17,0,2.34,0,3.511" transform="translate(-1.559 -3.649)"/><path class="c" d="M7.3,38.133c.65,0,1.3.007,1.95,0A.315.315,0,0,1,9.6,38.4q2.457,7.853,4.924,15.7c.1.336.1.342-.248.343-1.1,0-2.192-.006-3.288.005a.345.345,0,0,1-.4-.31c-.269-1.08-.558-2.156-.827-3.237-.057-.224-.143-.321-.39-.319q-2.145.016-4.29,0c-.246,0-.337.088-.394.317-.267,1.081-.56,2.156-.829,3.236a.343.343,0,0,1-.4.313c-1.069-.013-2.136-.011-3.2,0-.252,0-.3-.069-.223-.309Q1.76,48.666,3.475,43.193c.494-1.576.994-3.151,1.479-4.73a.39.39,0,0,1,.449-.334c.631.019,1.263.005,1.894.005m-.11,2.914a1.008,1.008,0,0,0-.04.1q-.71,3.153-1.559,6.271c-.061.226.035.251.219.25.939,0,1.877-.011,2.815,0,.269,0,.283-.095.224-.313C8.3,45.342,7.8,43.312,7.305,41.284a.325.325,0,0,0-.117-.236" transform="translate(0 -3.682)"/><path class="c" d="M33.763,46.279V38.56c0-.426,0-.426.435-.426h9.419c.412,0,.413,0,.413.416q0,1.171,0,2.341c0,.39,0,.392-.384.392H37.878c-.364,0-.365,0-.365.373,0,.845.006,1.69,0,2.535,0,.235.079.3.306.3,1.625-.006,3.251,0,4.877,0,.382,0,.387,0,.387.389q0,1.2,0,2.4c0,.341-.016.357-.368.357H37.918c-.4,0-.406,0-.406.391q0,1.435,0,2.87c0,.4,0,.4.393.4h5.964c.416,0,.426.009.427.416,0,.8-.006,1.6,0,2.4,0,.25-.081.336-.339.335q-4.933-.011-9.865,0c-.317,0-.337-.153-.337-.395q.007-3.888,0-7.775" transform="translate(-3.26 -3.683)"/><path class="c" d="M65.026,46.5a9.425,9.425,0,0,1,1.009-4.644,7.216,7.216,0,0,1,5.61-3.977,6.779,6.779,0,0,1,5.811,1.855c.167.154.177.254.027.43q-.814.954-1.594,1.936c-.16.2-.265.214-.458.04a3.856,3.856,0,0,0-2.219-1.07A3.464,3.464,0,0,0,70.02,42.4a5.193,5.193,0,0,0-1.085,2.647,7.86,7.86,0,0,0,.359,3.9,3.534,3.534,0,0,0,2.715,2.465,3.924,3.924,0,0,0,3.513-1.066c.417-.378.413-.388.785.051.474.561.935,1.131,1.419,1.683.164.187.131.3-.024.463a6.6,6.6,0,0,1-4.428,2.149,7.273,7.273,0,0,1-8.019-5.967,9.117,9.117,0,0,1-.229-2.225" transform="translate(-6.279 -3.65)"/></g></svg>