<svg xmlns="http://www.w3.org/2000/svg" xmlns:xlink="http://www.w3.org/1999/xlink" width="129.998" height="58.061" viewBox="0 0 129.998 58.061"><defs><style>.a{fill:none;}.b{clip-path:url(#a);}.c{fill:#fff;}</style><clipPath id="a"><rect class="a" width="129.998" height="58.061" transform="translate(0 0)"/></clipPath></defs><g transform="translate(0 0)"><g class="b"><path class="c" d="M13.562,56.228a.711.711,0,0,1,.695.776c0,.747-.721.827-1.068.827a2.189,2.189,0,0,1-2.43-1.9c-.027-.161-.054-.266-.133-.266-.027,0-.054.026-.107.08a5.56,5.56,0,0,1-4.458,2.242C2.591,57.993,0,55.485,0,51.614a5.977,5.977,0,0,1,6.058-6.328,5.364,5.364,0,0,1,4.218,1.921c.134.186.214.32.268.32s.08-.134.08-.48c0-1.362.026-3.257.026-4.806,0-1.816,0-2.269-1.069-2.269A3.209,3.209,0,0,0,9.154,40H9.1a.687.687,0,0,1-.747-.694.792.792,0,0,1,.827-.8c.267,0,.641-.028.882-.028A1.942,1.942,0,0,1,12.2,40.692V40.8c-.026,2.243-.052,6.568-.051,10.224,0,1.362,0,2.59,0,3.631,0,1.282.454,1.6,1.041,1.6.133,0,.24-.027.347-.027Zm-2.937-4.617c0-2.989-1.977-4.938-4.513-4.937-2.7,0-4.538,1.869-4.537,4.939,0,3.043,1.869,4.912,4.539,4.911,2.509,0,4.512-1.95,4.511-4.913"/><path class="c" d="M25.146,56.04c-.026-.081-.053-.134-.106-.134a.146.146,0,0,0-.107.08,4.933,4.933,0,0,1-4.057,2.057c-2.695,0-4.325-1.841-4.325-3.684a3.565,3.565,0,0,1,2.856-3.31,42.778,42.778,0,0,1,4.938-1.1c.32-.054.427-.135.427-.321,0-.134.027-.293.026-.427,0-1.469-.614-2.615-2.776-2.615A4.2,4.2,0,0,0,18.9,47.873a.742.742,0,0,1-.561.267.724.724,0,0,1-.747-.721c0-1.015,2.242-2.162,4.537-2.163,2.483,0,4.166,1.094,4.167,4.084a7.18,7.18,0,0,1-.027.747c-.08.881-.133,2.268-.133,3.283,0,1.949.188,2.589,1.255,2.963a.679.679,0,0,1,.455.667.723.723,0,0,1-.721.747,2.273,2.273,0,0,1-1.977-1.707m-.4-4.084v-.348c0-.214-.08-.294-.267-.294H24.4c-4.191.669-6.406,1.2-6.405,3.073,0,1.12,1.067,2.241,2.856,2.241,1.361,0,3.9-.562,3.9-4.672"/><path class="c" d="M34.034,46.96c-.427,0-.427.054-.427.374,0,1.015-.079,3.764-.079,5.739,0,2.083.054,3.5,2.136,3.5.24,0,.481-.027.747-.053h.107a.661.661,0,0,1,.642.693c0,.694-.641.828-1.708.829-3.417,0-3.418-2.909-3.418-4.084,0-1.709.051-4.965.051-6.273v-.427c0-.267-.079-.294-.267-.294H30.243a.709.709,0,1,1,0-1.415h1.549c.241,0,.293-.026.292-.267,0-.106.027-1.387.027-2.322V42.29a.775.775,0,1,1,1.548.053c0,.773-.053,2.909-.053,2.909,0,.293.054.293.4.293h2.375a.709.709,0,1,1,0,1.415Z"/><path class="c" d="M48.315,56.034c-.025-.08-.052-.134-.106-.134a.143.143,0,0,0-.106.08,4.934,4.934,0,0,1-4.058,2.058c-2.695,0-4.324-1.842-4.324-3.684a3.565,3.565,0,0,1,2.855-3.311,42.989,42.989,0,0,1,4.938-1.095c.32-.054.427-.134.427-.32,0-.134.027-.294.026-.428,0-1.468-.613-2.615-2.776-2.615a4.206,4.206,0,0,0-3.123,1.282.744.744,0,0,1-.561.267.723.723,0,0,1-.748-.721c0-1.015,2.242-2.162,4.538-2.163,2.483,0,4.165,1.1,4.167,4.084a7.17,7.17,0,0,1-.027.747c-.081.881-.133,2.268-.132,3.283,0,1.949.187,2.59,1.253,2.963a.68.68,0,0,1,.456.667.724.724,0,0,1-.722.748,2.274,2.274,0,0,1-1.977-1.708m-.4-4.084V51.6c0-.214-.081-.294-.268-.294h-.079c-4.192.668-6.407,1.2-6.406,3.072,0,1.121,1.068,2.242,2.857,2.242,1.36,0,3.9-.563,3.9-4.673"/><path class="c" d="M61.528,45.94c-.026.561-.026.935-.026,1.335,0,.373,0,.774.026,1.388v.053a.657.657,0,0,1-.667.641.685.685,0,0,1-.748-.694c0-2.135-2.376-2.134-2.536-2.134-1.388,0-2.162.828-2.162,1.709A2.056,2.056,0,0,0,56.724,50c.747.346,2.029.879,2.856,1.307a3.822,3.822,0,0,1,2.377,3.31c0,1.468-1.174,3.444-4.217,3.444a4.187,4.187,0,0,1-2.67-.88.337.337,0,0,0-.187-.106c-.053,0-.08.053-.08.134,0,.667-.32.747-.64.747a.644.644,0,0,1-.694-.641V57.26c.026-.587.052-.987.052-1.387s-.026-.8-.053-1.442v-.053a.7.7,0,0,1,.748-.695.685.685,0,0,1,.72.721c0,.187-.054.32-.054.507,0,.882,1.335,1.761,2.857,1.761,1.361,0,2.669-.775,2.669-2.056,0-1.415-1.175-2.055-4.272-3.336a3.226,3.226,0,0,1-2.163-2.963c0-1.548,1.254-3.069,3.63-3.07a4.306,4.306,0,0,1,2.35.719.194.194,0,0,0,.16.054c.134,0,.107-.24.134-.32a.6.6,0,0,1,.613-.427.624.624,0,0,1,.668.641Z"/><path class="c" d="M76.5,57.682c-.694-.026-1.334-.053-1.922-.053s-1.174.028-1.788.054h-.054a.678.678,0,0,1-.72-.693.625.625,0,0,1,.719-.7c.695,0,.695-.161.695-.187A.2.2,0,0,0,73.381,56c-1.415-1.387-3.6-3.416-4.432-4.269a.955.955,0,0,0-.8-.32c-.4,0-.427.24-.427,1.628,0,.64,0,1.495.028,2.776a.408.408,0,0,0,.453.454,6.936,6.936,0,0,0,.748-.026h.026a.722.722,0,1,1,0,1.441H68.95c-.693-.026-1.388-.054-2.082-.053-.667,0-1.308.028-1.921.054a.691.691,0,0,1-.8-.693.735.735,0,0,1,.774-.748h.027c.32,0,.373.026.8.026a.421.421,0,0,0,.454-.454c.052-2.8.078-6.406.077-9.663,0-1.869-.027-3.658-.028-5.1,0-.747-.213-1.04-.881-1.067h-.614a.728.728,0,0,1-.747-.747c0-.694.48-.774,1.414-.774,2.189,0,2.376,1.414,2.376,2,0,3.445-.05,9.1-.05,9.1A.4.4,0,0,0,68.2,50c.293,0,.4-.027,4.616-2.937.081-.054.108-.107.108-.134,0-.054-.054-.08-.188-.08-.48,0-1.12,0-1.12-.641a.679.679,0,0,1,.72-.694h.054c.667.026,1.254.026,1.868.026.587,0,1.228,0,1.922-.027a.65.65,0,0,1,.774.694.7.7,0,0,1-.747.695h-.027c-.373,0-.159-.028-.534-.028a1.278,1.278,0,0,0-.667.242c-1.575,1.068-3.63,2.456-4.937,3.311-.161.107-.214.187-.214.267,0,.186.694.827,5.527,5.257a.988.988,0,0,0,.773.32c.107,0,.241-.026.4-.026a.659.659,0,0,1,.748.693.712.712,0,0,1-.747.748Z"/><path class="c" d="M85.339,58.028a5.965,5.965,0,0,1-6.035-6.3c0-3.9,2.8-6.461,5.952-6.462a4.974,4.974,0,0,1,5.26,4.377c0,.988-.586,1.735-1.948,1.789-.614.027-1.522.027-2.509.027-2,0-4.271-.026-4.859-.026-.267,0-.32.107-.32.48a4.361,4.361,0,0,0,4.485,4.7,4.783,4.783,0,0,0,3.871-1.764.76.76,0,0,1,.534-.239.815.815,0,0,1,.8.773c0,.614-1.868,2.644-5.232,2.645M85.283,46.6c-2.563,0-4.191,2.3-4.19,3.285,0,.267.241.267,3.337.267,1.388,0,2.884,0,3.631-.028.64-.026.881-.321.881-.748,0-.774-.935-2.776-3.659-2.776"/><path class="c" d="M97.109,46.947c-.427,0-.427.054-.427.373,0,1.015-.079,3.764-.079,5.739,0,2.082.054,3.5,2.136,3.5a7.449,7.449,0,0,0,.747-.053h.107a.66.66,0,0,1,.641.694c0,.693-.64.827-1.708.827-3.417,0-3.418-2.908-3.418-4.083,0-1.708.052-4.966.052-6.273V47.24c0-.267-.079-.293-.267-.293H93.318a.709.709,0,1,1,0-1.415h1.548c.24,0,.294-.027.293-.267,0-.107.027-1.388.027-2.323v-.667a.775.775,0,1,1,1.548.053c0,.774-.053,2.91-.053,2.91,0,.294.054.294.4.294h2.376a.709.709,0,1,1,0,1.415Z"/><path class="c" d="M109.044,58a6.068,6.068,0,0,1-6.275-6.3c0-3.737,2.641-6.541,6-6.542a6.168,6.168,0,0,1,3.018.8c.053.027.08.054.133.054.08,0,.107-.16.134-.293.027-.322.346-.454.639-.454a.689.689,0,0,1,.775.667v.053c-.026.561-.026.961-.026,1.388,0,.4,0,.828.026,1.441v.054a.687.687,0,0,1-.773.668.708.708,0,0,1-.748-.641c-.027-.56.053-.881-.266-1.254a3.507,3.507,0,0,0-2.724-1.094,4.719,4.719,0,0,0-4.644,5.046,4.678,4.678,0,0,0,4.646,4.964,4.2,4.2,0,0,0,3.417-1.549.841.841,0,0,1,.694-.4.856.856,0,0,1,.854.829c0,.773-2,2.562-4.884,2.563"/><path class="c" d="M129.2,57.67c-.694-.026-1.388-.053-2.083-.053-.667,0-1.307.027-1.921.054a.69.69,0,0,1-.8-.694.733.733,0,0,1,.773-.747h.027c.347,0,.373.026.8.025a.414.414,0,0,0,.428-.453c0-.882.027-1.9.026-2.883,0-1.389-.027-2.644-.054-3.15a3,3,0,0,0-3.071-3.149,3.9,3.9,0,0,0-3.976,3.5c0,.506-.027,1.308-.027,2.269,0,.987.028,2.162.028,3.416a.408.408,0,0,0,.454.454,6.917,6.917,0,0,0,.747-.026.723.723,0,0,1,.8.72.73.73,0,0,1-.774.721h-.026c-.7-.026-1.415-.054-2.082-.054s-1.335.029-1.95.055a.689.689,0,0,1-.8-.693.734.734,0,0,1,.773-.748h.027c.347,0,.427.026.854.026a.4.4,0,0,0,.427-.454c.027-2.163.053-5.527.052-8.73,0-2.269-.028-4.431-.029-6.033,0-.693-.213-1.067-.908-1.094a5.117,5.117,0,0,0-.586.027H116.3a.728.728,0,0,1-.747-.747c0-.454.213-.8,1.36-.8a5.762,5.762,0,0,1,.668.053,1.861,1.861,0,0,1,1.815,2.028q0,.721,0,1.522c0,2.162-.025,4.565-.025,4.939,0,.08.026.134.053.134s.053-.028.106-.081a5,5,0,0,1,3.951-1.816,4.227,4.227,0,0,1,4.459,4.27c.027,1.121.054,4.191.054,6.3,0,.294.134.481.454.481.4,0,.374-.026.749-.026h.026a.722.722,0,1,1,0,1.441Z"/><path class="c" d="M89.592,21.883,81.15,16.155V2.669A2.672,2.672,0,0,0,78.481,0H54.074A2.672,2.672,0,0,0,51.4,2.669V20.424a2.672,2.672,0,0,0,2.669,2.67H65.6L61.252,27.47a.662.662,0,1,0,.94.933l4.086-4.112L70.363,28.4a.662.662,0,0,0,.94-.933l-4.347-4.375H78.481a2.672,2.672,0,0,0,2.669-2.67V17.756l7.7,5.224a.663.663,0,0,0,.744-1.1m-9.766-6.626L75.3,12.185a.662.662,0,1,0-.744,1.1l5.272,3.577v3.566a1.347,1.347,0,0,1-1.345,1.345H54.074a1.346,1.346,0,0,1-1.345-1.345V2.669a1.347,1.347,0,0,1,1.345-1.345H78.481a1.347,1.347,0,0,1,1.345,1.345Z"/></g></g></svg>